# xmcd
#
# Track frame offsets:
#	150
#	8630
#	18782
#	31755
#	50287
#	61147
#	76607
#	89510
#	100982
#	111980
#	122660
#	136365
#	147525
#	159530
#	172627
#	183470
#
# Disc length: 2624 seconds
# Revision: 6
# Processed by: cddbd v1.5.2PL0 Copyright (c) Steve Scherf et al.
# Submitted via: dBpowerAMP V12.0
#
DISCID=bf0a3e10
DTITLE=Various Artist - Country Love Songs
DYEAR=1987
DGENRE=Country
TTITLE0=Jack Jones - My Fault
TTITLE1=Dolly Parton - Release Me
TTITLE2=Willie Nelson - Any Old Arms Won`t Do
TTITLE3=Jeanie Pruett - Please Play Satin Sheets for Me
TTITLE4=Carl Belew - Am I That Easy to Forget
TTITLE5=Kenny Rodgers - For the Good Times
TTITLE6=Freddy Fender - Since I Met You Baby
TTITLE7=Roy Drusky - Blue Eyes Crying in the Rain
TTITLE8=Ferlein Huskey - Gone
TTITLE9=Jimmy Rodgers - Kisses Sweeter Than Wine
TTITLE10=David Houston - Almost Persuaded
TTITLE11=Don Williams - Always Something There to Remind Me
TTITLE12=Jack Scott - My True Love
TTITLE13=Carl and Pearl Butler - Don`t Let Me Over You
TTITLE14=Jack Greene - Theres Goes My Everything
TTITLE15=Alabama - Patches
EXTD=
EXTT0=
EXTT1=
EXTT2=
EXTT3=
EXTT4=
EXTT5=
EXTT6=
EXTT7=
EXTT8=
EXTT9=
EXTT10=
EXTT11=
EXTT12=
EXTT13=
EXTT14=
EXTT15=
PLAYORDER=
